# xmcd CD database file
#
# Track frame offsets:
#	150
#	64295
#	120092
#	144782
#	197742
#	234162
#	266934
#	296619
#
# Disc length: 4504 seconds
#
# Revision: 0
# Processed by: cddbd v1.5.2PL0 Copyright (c) Steve Scherf et al.
# Submitted via: CDex 1.51
#
DISCID=6f119608
DTITLE=Gillespie, Dizzy and Sonny Rollins - The Legendary Sessions, CD2
DYEAR=2014
DGENRE=Jazz
TTITLE0=The Eternal Triangle
TTITLE1=After Hours
TTITLE2=I Know That You Know
TTITLE3=Tour De Force
TTITLE4=Dizzy Meets Sonny
TTITLE5=Ballad Medley-Old Folks+What's New+How Deep Is The Ocean
TTITLE6=Mean To Me
TTITLE7=Blues For Bird
EXTD=YEAR: 2014
EXTT0=
EXTT1=
EXTT2=
EXTT3=
EXTT4=
EXTT5=
EXTT6=
EXTT7=
PLAYORDER=
